<?xml version="1.0" encoding="utf-8" standalone="no"?>
<!DOCTYPE svg PUBLIC "-//W3C//DTD SVG 1.1//EN"
  "http://www.w3.org/Graphics/SVG/1.1/DTD/svg11.dtd">
<svg xmlns:xlink="http://www.w3.org/1999/xlink" width="576pt" height="432pt" viewBox="0 0 576 432" xmlns="http://www.w3.org/2000/svg" version="1.1">
 <metadata>
  <rdf:RDF xmlns:dc="http://purl.org/dc/elements/1.1/" xmlns:cc="http://creativecommons.org/ns#" xmlns:rdf="http://www.w3.org/1999/02/22-rdf-syntax-ns#">
   <cc:Work>
    <dc:type rdf:resource="http://purl.org/dc/dcmitype/StillImage"/>
    <dc:date>2022-12-11T12:46:09.765550</dc:date>
    <dc:format>image/svg+xml</dc:format>
    <dc:creator>
     <cc:Agent>
      <dc:title>Matplotlib v3.5.2, https://matplotlib.org/</dc:title>
     </cc:Agent>
    </dc:creator>
   </cc:Work>
  </rdf:RDF>
 </metadata>
 <defs>
  <style type="text/css">*{stroke-linejoin: round; stroke-linecap: butt}</style>
 </defs>
 <g id="figure_1">
  <g id="patch_1">
   <path d="M 0 432 
L 576 432 
L 576 0 
L 0 0 
L 0 432 
z
" style="fill: none"/>
  </g>
  <g id="axes_1">
   <g id="patch_2">
    <path d="M 115.2 367.2 
L 547.2 367.2 
L 547.2 21.6 
L 115.2 21.6 
L 115.2 367.2 
z
" style="fill: none"/>
   </g>
   <g id="matplotlib.axis_1">
    <g id="xtick_1">
     <g id="line2d_1">
      <path d="M 115.2 367.2 
L 115.2 21.6 
" clip-path="url(#p9e7b20d132)" style="fill: none; stroke: #b0b0b0; stroke-width: 0.8; stroke-linecap: square"/>
     </g>
     <g id="line2d_2">
      <defs>
       <path id="m0a32917719" d="M 0 0 
L 0 3.5 
" style="stroke: #000000; stroke-width: 0.8"/>
      </defs>
      <g>
       <use xlink:href="#m0a32917719" x="115.2" y="367.2" style="stroke: #000000; stroke-width: 0.8"/>
      </g>
     </g>
     <g id="text_1">
      <!-- 0.0 -->
      <g transform="translate(99.296875 389.396875)scale(0.2 -0.2)">
       <defs>
        <path id="DejaVuSans-30" d="M 2034 4250 
Q 1547 4250 1301 3770 
Q 1056 3291 1056 2328 
Q 1056 1369 1301 889 
Q 1547 409 2034 409 
Q 2525 409 2770 889 
Q 3016 1369 3016 2328 
Q 3016 3291 2770 3770 
Q 2525 4250 2034 4250 
z
M 2034 4750 
Q 2819 4750 3233 4129 
Q 3647 3509 3647 2328 
Q 3647 1150 3233 529 
Q 2819 -91 2034 -91 
Q 1250 -91 836 529 
Q 422 1150 422 2328 
Q 422 3509 836 4129 
Q 1250 4750 2034 4750 
z
" transform="scale(0.015625)"/>
        <path id="DejaVuSans-2e" d="M 684 794 
L 1344 794 
L 1344 0 
L 684 0 
L 684 794 
z
" transform="scale(0.015625)"/>
       </defs>
       <use xlink:href="#DejaVuSans-30"/>
       <use xlink:href="#DejaVuSans-2e" x="63.623047"/>
       <use xlink:href="#DejaVuSans-30" x="95.410156"/>
      </g>
     </g>
    </g>
    <g id="xtick_2">
     <g id="line2d_3">
      <path d="M 201.6 367.2 
L 201.6 21.6 
" clip-path="url(#p9e7b20d132)" style="fill: none; stroke: #b0b0b0; stroke-width: 0.8; stroke-linecap: square"/>
     </g>
     <g id="line2d_4">
      <g>
       <use xlink:href="#m0a32917719" x="201.6" y="367.2" style="stroke: #000000; stroke-width: 0.8"/>
      </g>
     </g>
     <g id="text_2">
      <!-- 0.2 -->
      <g transform="translate(185.696875 389.396875)scale(0.2 -0.2)">
       <defs>
        <path id="DejaVuSans-32" d="M 1228 531 
L 3431 531 
L 3431 0 
L 469 0 
L 469 531 
Q 828 903 1448 1529 
Q 2069 2156 2228 2338 
Q 2531 2678 2651 2914 
Q 2772 3150 2772 3378 
Q 2772 3750 2511 3984 
Q 2250 4219 1831 4219 
Q 1534 4219 1204 4116 
Q 875 4013 500 3803 
L 500 4441 
Q 881 4594 1212 4672 
Q 1544 4750 1819 4750 
Q 2544 4750 2975 4387 
Q 3406 4025 3406 3419 
Q 3406 3131 3298 2873 
Q 3191 2616 2906 2266 
Q 2828 2175 2409 1742 
Q 1991 1309 1228 531 
z
" transform="scale(0.015625)"/>
       </defs>
       <use xlink:href="#DejaVuSans-30"/>
       <use xlink:href="#DejaVuSans-2e" x="63.623047"/>
       <use xlink:href="#DejaVuSans-32" x="95.410156"/>
      </g>
     </g>
    </g>
    <g id="xtick_3">
     <g id="line2d_5">
      <path d="M 288 367.2 
L 288 21.6 
" clip-path="url(#p9e7b20d132)" style="fill: none; stroke: #b0b0b0; stroke-width: 0.8; stroke-linecap: square"/>
     </g>
     <g id="line2d_6">
      <g>
       <use xlink:href="#m0a32917719" x="288" y="367.2" style="stroke: #000000; stroke-width: 0.8"/>
      </g>
     </g>
     <g id="text_3">
      <!-- 0.4 -->
      <g transform="translate(272.096875 389.396875)scale(0.2 -0.2)">
       <defs>
        <path id="DejaVuSans-34" d="M 2419 4116 
L 825 1625 
L 2419 1625 
L 2419 4116 
z
M 2253 4666 
L 3047 4666 
L 3047 1625 
L 3713 1625 
L 3713 1100 
L 3047 1100 
L 3047 0 
L 2419 0 
L 2419 1100 
L 313 1100 
L 313 1709 
L 2253 4666 
z
" transform="scale(0.015625)"/>
       </defs>
       <use xlink:href="#DejaVuSans-30"/>
       <use xlink:href="#DejaVuSans-2e" x="63.623047"/>
       <use xlink:href="#DejaVuSans-34" x="95.410156"/>
      </g>
     </g>
    </g>
    <g id="xtick_4">
     <g id="line2d_7">
      <path d="M 374.4 367.2 
L 374.4 21.6 
" clip-path="url(#p9e7b20d132)" style="fill: none; stroke: #b0b0b0; stroke-width: 0.8; stroke-linecap: square"/>
     </g>
     <g id="line2d_8">
      <g>
       <use xlink:href="#m0a32917719" x="374.4" y="367.2" style="stroke: #000000; stroke-width: 0.8"/>
      </g>
     </g>
     <g id="text_4">
      <!-- 0.6 -->
      <g transform="translate(358.496875 389.396875)scale(0.2 -0.2)">
       <defs>
        <path id="DejaVuSans-36" d="M 2113 2584 
Q 1688 2584 1439 2293 
Q 1191 2003 1191 1497 
Q 1191 994 1439 701 
Q 1688 409 2113 409 
Q 2538 409 2786 701 
Q 3034 994 3034 1497 
Q 3034 2003 2786 2293 
Q 2538 2584 2113 2584 
z
M 3366 4563 
L 3366 3988 
Q 3128 4100 2886 4159 
Q 2644 4219 2406 4219 
Q 1781 4219 1451 3797 
Q 1122 3375 1075 2522 
Q 1259 2794 1537 2939 
Q 1816 3084 2150 3084 
Q 2853 3084 3261 2657 
Q 3669 2231 3669 1497 
Q 3669 778 3244 343 
Q 2819 -91 2113 -91 
Q 1303 -91 875 529 
Q 447 1150 447 2328 
Q 447 3434 972 4092 
Q 1497 4750 2381 4750 
Q 2619 4750 2861 4703 
Q 3103 4656 3366 4563 
z
" transform="scale(0.015625)"/>
       </defs>
       <use xlink:href="#DejaVuSans-30"/>
       <use xlink:href="#DejaVuSans-2e" x="63.623047"/>
       <use xlink:href="#DejaVuSans-36" x="95.410156"/>
      </g>
     </g>
    </g>
    <g id="xtick_5">
     <g id="line2d_9">
      <path d="M 460.8 367.2 
L 460.8 21.6 
" clip-path="url(#p9e7b20d132)" style="fill: none; stroke: #b0b0b0; stroke-width: 0.8; stroke-linecap: square"/>
     </g>
     <g id="line2d_10">
      <g>
       <use xlink:href="#m0a32917719" x="460.8" y="367.2" style="stroke: #000000; stroke-width: 0.8"/>
      </g>
     </g>
     <g id="text_5">
      <!-- 0.8 -->
      <g transform="translate(444.896875 389.396875)scale(0.2 -0.2)">
       <defs>
        <path id="DejaVuSans-38" d="M 2034 2216 
Q 1584 2216 1326 1975 
Q 1069 1734 1069 1313 
Q 1069 891 1326 650 
Q 1584 409 2034 409 
Q 2484 409 2743 651 
Q 3003 894 3003 1313 
Q 3003 1734 2745 1975 
Q 2488 2216 2034 2216 
z
M 1403 2484 
Q 997 2584 770 2862 
Q 544 3141 544 3541 
Q 544 4100 942 4425 
Q 1341 4750 2034 4750 
Q 2731 4750 3128 4425 
Q 3525 4100 3525 3541 
Q 3525 3141 3298 2862 
Q 3072 2584 2669 2484 
Q 3125 2378 3379 2068 
Q 3634 1759 3634 1313 
Q 3634 634 3220 271 
Q 2806 -91 2034 -91 
Q 1263 -91 848 271 
Q 434 634 434 1313 
Q 434 1759 690 2068 
Q 947 2378 1403 2484 
z
M 1172 3481 
Q 1172 3119 1398 2916 
Q 1625 2713 2034 2713 
Q 2441 2713 2670 2916 
Q 2900 3119 2900 3481 
Q 2900 3844 2670 4047 
Q 2441 4250 2034 4250 
Q 1625 4250 1398 4047 
Q 1172 3844 1172 3481 
z
" transform="scale(0.015625)"/>
       </defs>
       <use xlink:href="#DejaVuSans-30"/>
       <use xlink:href="#DejaVuSans-2e" x="63.623047"/>
       <use xlink:href="#DejaVuSans-38" x="95.410156"/>
      </g>
     </g>
    </g>
    <g id="xtick_6">
     <g id="line2d_11">
      <path d="M 547.2 367.2 
L 547.2 21.6 
" clip-path="url(#p9e7b20d132)" style="fill: none; stroke: #b0b0b0; stroke-width: 0.8; stroke-linecap: square"/>
     </g>
     <g id="line2d_12">
      <g>
       <use xlink:href="#m0a32917719" x="547.2" y="367.2" style="stroke: #000000; stroke-width: 0.8"/>
      </g>
     </g>
     <g id="text_6">
      <!-- 1.0 -->
      <g transform="translate(531.296875 389.396875)scale(0.2 -0.2)">
       <defs>
        <path id="DejaVuSans-31" d="M 794 531 
L 1825 531 
L 1825 4091 
L 703 3866 
L 703 4441 
L 1819 4666 
L 2450 4666 
L 2450 531 
L 3481 531 
L 3481 0 
L 794 0 
L 794 531 
z
" transform="scale(0.015625)"/>
       </defs>
       <use xlink:href="#DejaVuSans-31"/>
       <use xlink:href="#DejaVuSans-2e" x="63.623047"/>
       <use xlink:href="#DejaVuSans-30" x="95.410156"/>
      </g>
     </g>
    </g>
    <g id="text_7">
     <!-- Iteration -->
     <g transform="translate(288.782812 412.753125)scale(0.2 -0.2)">
      <defs>
       <path id="DejaVuSans-49" d="M 628 4666 
L 1259 4666 
L 1259 0 
L 628 0 
L 628 4666 
z
" transform="scale(0.015625)"/>
       <path id="DejaVuSans-74" d="M 1172 4494 
L 1172 3500 
L 2356 3500 
L 2356 3053 
L 1172 3053 
L 1172 1153 
Q 1172 725 1289 603 
Q 1406 481 1766 481 
L 2356 481 
L 2356 0 
L 1766 0 
Q 1100 0 847 248 
Q 594 497 594 1153 
L 594 3053 
L 172 3053 
L 172 3500 
L 594 3500 
L 594 4494 
L 1172 4494 
z
" transform="scale(0.015625)"/>
       <path id="DejaVuSans-65" d="M 3597 1894 
L 3597 1613 
L 953 1613 
Q 991 1019 1311 708 
Q 1631 397 2203 397 
Q 2534 397 2845 478 
Q 3156 559 3463 722 
L 3463 178 
Q 3153 47 2828 -22 
Q 2503 -91 2169 -91 
Q 1331 -91 842 396 
Q 353 884 353 1716 
Q 353 2575 817 3079 
Q 1281 3584 2069 3584 
Q 2775 3584 3186 3129 
Q 3597 2675 3597 1894 
z
M 3022 2063 
Q 3016 2534 2758 2815 
Q 2500 3097 2075 3097 
Q 1594 3097 1305 2825 
Q 1016 2553 972 2059 
L 3022 2063 
z
" transform="scale(0.015625)"/>
       <path id="DejaVuSans-72" d="M 2631 2963 
Q 2534 3019 2420 3045 
Q 2306 3072 2169 3072 
Q 1681 3072 1420 2755 
Q 1159 2438 1159 1844 
L 1159 0 
L 581 0 
L 581 3500 
L 1159 3500 
L 1159 2956 
Q 1341 3275 1631 3429 
Q 1922 3584 2338 3584 
Q 2397 3584 2469 3576 
Q 2541 3569 2628 3553 
L 2631 2963 
z
" transform="scale(0.015625)"/>
       <path id="DejaVuSans-61" d="M 2194 1759 
Q 1497 1759 1228 1600 
Q 959 1441 959 1056 
Q 959 750 1161 570 
Q 1363 391 1709 391 
Q 2188 391 2477 730 
Q 2766 1069 2766 1631 
L 2766 1759 
L 2194 1759 
z
M 3341 1997 
L 3341 0 
L 2766 0 
L 2766 531 
Q 2569 213 2275 61 
Q 1981 -91 1556 -91 
Q 1019 -91 701 211 
Q 384 513 384 1019 
Q 384 1609 779 1909 
Q 1175 2209 1959 2209 
L 2766 2209 
L 2766 2266 
Q 2766 2663 2505 2880 
Q 2244 3097 1772 3097 
Q 1472 3097 1187 3025 
Q 903 2953 641 2809 
L 641 3341 
Q 956 3463 1253 3523 
Q 1550 3584 1831 3584 
Q 2591 3584 2966 3190 
Q 3341 2797 3341 1997 
z
" transform="scale(0.015625)"/>
       <path id="DejaVuSans-69" d="M 603 3500 
L 1178 3500 
L 1178 0 
L 603 0 
L 603 3500 
z
M 603 4863 
L 1178 4863 
L 1178 4134 
L 603 4134 
L 603 4863 
z
" transform="scale(0.015625)"/>
       <path id="DejaVuSans-6f" d="M 1959 3097 
Q 1497 3097 1228 2736 
Q 959 2375 959 1747 
Q 959 1119 1226 758 
Q 1494 397 1959 397 
Q 2419 397 2687 759 
Q 2956 1122 2956 1747 
Q 2956 2369 2687 2733 
Q 2419 3097 1959 3097 
z
M 1959 3584 
Q 2709 3584 3137 3096 
Q 3566 2609 3566 1747 
Q 3566 888 3137 398 
Q 2709 -91 1959 -91 
Q 1206 -91 779 398 
Q 353 888 353 1747 
Q 353 2609 779 3096 
Q 1206 3584 1959 3584 
z
" transform="scale(0.015625)"/>
       <path id="DejaVuSans-6e" d="M 3513 2113 
L 3513 0 
L 2938 0 
L 2938 2094 
Q 2938 2591 2744 2837 
Q 2550 3084 2163 3084 
Q 1697 3084 1428 2787 
Q 1159 2491 1159 1978 
L 1159 0 
L 581 0 
L 581 3500 
L 1159 3500 
L 1159 2956 
Q 1366 3272 1645 3428 
Q 1925 3584 2291 3584 
Q 2894 3584 3203 3211 
Q 3513 2838 3513 2113 
z
" transform="scale(0.015625)"/>
      </defs>
      <use xlink:href="#DejaVuSans-49"/>
      <use xlink:href="#DejaVuSans-74" x="29.492188"/>
      <use xlink:href="#DejaVuSans-65" x="68.701172"/>
      <use xlink:href="#DejaVuSans-72" x="130.224609"/>
      <use xlink:href="#DejaVuSans-61" x="171.337891"/>
      <use xlink:href="#DejaVuSans-74" x="232.617188"/>
      <use xlink:href="#DejaVuSans-69" x="271.826172"/>
      <use xlink:href="#DejaVuSans-6f" x="299.609375"/>
      <use xlink:href="#DejaVuSans-6e" x="360.791016"/>
     </g>
    </g>
    <g id="text_8">
     <!-- 1e6 -->
     <g transform="translate(509.44375 411.753125)scale(0.2 -0.2)">
      <use xlink:href="#DejaVuSans-31"/>
      <use xlink:href="#DejaVuSans-65" x="63.623047"/>
      <use xlink:href="#DejaVuSans-36" x="125.146484"/>
     </g>
    </g>
   </g>
   <g id="matplotlib.axis_2">
    <g id="ytick_1">
     <g id="line2d_13">
      <path d="M 115.2 323.448028 
L 547.2 323.448028 
" clip-path="url(#p9e7b20d132)" style="fill: none; stroke: #b0b0b0; stroke-width: 0.8; stroke-linecap: square"/>
     </g>
     <g id="line2d_14">
      <defs>
       <path id="ma19bafd5b6" d="M 0 0 
L -3.5 0 
" style="stroke: #000000; stroke-width: 0.8"/>
      </defs>
      <g>
       <use xlink:href="#ma19bafd5b6" x="115.2" y="323.448028" style="stroke: #000000; stroke-width: 0.8"/>
      </g>
     </g>
     <g id="text_9">
      <!-- 0.490 -->
      <g transform="translate(50.94375 331.046465)scale(0.2 -0.2)">
       <defs>
        <path id="DejaVuSans-39" d="M 703 97 
L 703 672 
Q 941 559 1184 500 
Q 1428 441 1663 441 
Q 2288 441 2617 861 
Q 2947 1281 2994 2138 
Q 2813 1869 2534 1725 
Q 2256 1581 1919 1581 
Q 1219 1581 811 2004 
Q 403 2428 403 3163 
Q 403 3881 828 4315 
Q 1253 4750 1959 4750 
Q 2769 4750 3195 4129 
Q 3622 3509 3622 2328 
Q 3622 1225 3098 567 
Q 2575 -91 1691 -91 
Q 1453 -91 1209 -44 
Q 966 3 703 97 
z
M 1959 2075 
Q 2384 2075 2632 2365 
Q 2881 2656 2881 3163 
Q 2881 3666 2632 3958 
Q 2384 4250 1959 4250 
Q 1534 4250 1286 3958 
Q 1038 3666 1038 3163 
Q 1038 2656 1286 2365 
Q 1534 2075 1959 2075 
z
" transform="scale(0.015625)"/>
       </defs>
       <use xlink:href="#DejaVuSans-30"/>
       <use xlink:href="#DejaVuSans-2e" x="63.623047"/>
       <use xlink:href="#DejaVuSans-34" x="95.410156"/>
       <use xlink:href="#DejaVuSans-39" x="159.033203"/>
       <use xlink:href="#DejaVuSans-30" x="222.65625"/>
      </g>
     </g>
    </g>
    <g id="ytick_2">
     <g id="line2d_15">
      <path d="M 115.2 264.551201 
L 547.2 264.551201 
" clip-path="url(#p9e7b20d132)" style="fill: none; stroke: #b0b0b0; stroke-width: 0.8; stroke-linecap: square"/>
     </g>
     <g id="line2d_16">
      <g>
       <use xlink:href="#ma19bafd5b6" x="115.2" y="264.551201" style="stroke: #000000; stroke-width: 0.8"/>
      </g>
     </g>
     <g id="text_10">
      <!-- 0.495 -->
      <g transform="translate(50.94375 272.149639)scale(0.2 -0.2)">
       <defs>
        <path id="DejaVuSans-35" d="M 691 4666 
L 3169 4666 
L 3169 4134 
L 1269 4134 
L 1269 2991 
Q 1406 3038 1543 3061 
Q 1681 3084 1819 3084 
Q 2600 3084 3056 2656 
Q 3513 2228 3513 1497 
Q 3513 744 3044 326 
Q 2575 -91 1722 -91 
Q 1428 -91 1123 -41 
Q 819 9 494 109 
L 494 744 
Q 775 591 1075 516 
Q 1375 441 1709 441 
Q 2250 441 2565 725 
Q 2881 1009 2881 1497 
Q 2881 1984 2565 2268 
Q 2250 2553 1709 2553 
Q 1456 2553 1204 2497 
Q 953 2441 691 2322 
L 691 4666 
z
" transform="scale(0.015625)"/>
       </defs>
       <use xlink:href="#DejaVuSans-30"/>
       <use xlink:href="#DejaVuSans-2e" x="63.623047"/>
       <use xlink:href="#DejaVuSans-34" x="95.410156"/>
       <use xlink:href="#DejaVuSans-39" x="159.033203"/>
       <use xlink:href="#DejaVuSans-35" x="222.65625"/>
      </g>
     </g>
    </g>
    <g id="ytick_3">
     <g id="line2d_17">
      <path d="M 115.2 205.654375 
L 547.2 205.654375 
" clip-path="url(#p9e7b20d132)" style="fill: none; stroke: #b0b0b0; stroke-width: 0.8; stroke-linecap: square"/>
     </g>
     <g id="line2d_18">
      <g>
       <use xlink:href="#ma19bafd5b6" x="115.2" y="205.654375" style="stroke: #000000; stroke-width: 0.8"/>
      </g>
     </g>
     <g id="text_11">
      <!-- 0.500 -->
      <g transform="translate(50.94375 213.252812)scale(0.2 -0.2)">
       <use xlink:href="#DejaVuSans-30"/>
       <use xlink:href="#DejaVuSans-2e" x="63.623047"/>
       <use xlink:href="#DejaVuSans-35" x="95.410156"/>
       <use xlink:href="#DejaVuSans-30" x="159.033203"/>
       <use xlink:href="#DejaVuSans-30" x="222.65625"/>
      </g>
     </g>
    </g>
    <g id="ytick_4">
     <g id="line2d_19">
      <path d="M 115.2 146.757548 
L 547.2 146.757548 
" clip-path="url(#p9e7b20d132)" style="fill: none; stroke: #b0b0b0; stroke-width: 0.8; stroke-linecap: square"/>
     </g>
     <g id="line2d_20">
      <g>
       <use xlink:href="#ma19bafd5b6" x="115.2" y="146.757548" style="stroke: #000000; stroke-width: 0.8"/>
      </g>
     </g>
     <g id="text_12">
      <!-- 0.505 -->
      <g transform="translate(50.94375 154.355986)scale(0.2 -0.2)">
       <use xlink:href="#DejaVuSans-30"/>
       <use xlink:href="#DejaVuSans-2e" x="63.623047"/>
       <use xlink:href="#DejaVuSans-35" x="95.410156"/>
       <use xlink:href="#DejaVuSans-30" x="159.033203"/>
       <use xlink:href="#DejaVuSans-35" x="222.65625"/>
      </g>
     </g>
    </g>
    <g id="ytick_5">
     <g id="line2d_21">
      <path d="M 115.2 87.860722 
L 547.2 87.860722 
" clip-path="url(#p9e7b20d132)" style="fill: none; stroke: #b0b0b0; stroke-width: 0.8; stroke-linecap: square"/>
     </g>
     <g id="line2d_22">
      <g>
       <use xlink:href="#ma19bafd5b6" x="115.2" y="87.860722" style="stroke: #000000; stroke-width: 0.8"/>
      </g>
     </g>
     <g id="text_13">
      <!-- 0.510 -->
      <g transform="translate(50.94375 95.459159)scale(0.2 -0.2)">
       <use xlink:href="#DejaVuSans-30"/>
       <use xlink:href="#DejaVuSans-2e" x="63.623047"/>
       <use xlink:href="#DejaVuSans-35" x="95.410156"/>
       <use xlink:href="#DejaVuSans-31" x="159.033203"/>
       <use xlink:href="#DejaVuSans-30" x="222.65625"/>
      </g>
     </g>
    </g>
    <g id="ytick_6">
     <g id="line2d_23">
      <path d="M 115.2 28.963895 
L 547.2 28.963895 
" clip-path="url(#p9e7b20d132)" style="fill: none; stroke: #b0b0b0; stroke-width: 0.8; stroke-linecap: square"/>
     </g>
     <g id="line2d_24">
      <g>
       <use xlink:href="#ma19bafd5b6" x="115.2" y="28.963895" style="stroke: #000000; stroke-width: 0.8"/>
      </g>
     </g>
     <g id="text_14">
      <!-- 0.515 -->
      <g transform="translate(50.94375 36.562333)scale(0.2 -0.2)">
       <use xlink:href="#DejaVuSans-30"/>
       <use xlink:href="#DejaVuSans-2e" x="63.623047"/>
       <use xlink:href="#DejaVuSans-35" x="95.410156"/>
       <use xlink:href="#DejaVuSans-31" x="159.033203"/>
       <use xlink:href="#DejaVuSans-35" x="222.65625"/>
      </g>
     </g>
    </g>
    <g id="text_15">
     <!-- $\langle\hat{x}^2\rangle$ -->
     <g transform="translate(42.784375 213)rotate(-90)scale(0.2 -0.2)">
      <defs>
       <path id="DejaVuSans-27e8" d="M 572 2006 
L 1453 4856 
L 1984 4856 
L 1103 2006 
L 1984 -844 
L 1453 -844 
L 572 2006 
z
" transform="scale(0.015625)"/>
       <path id="DejaVuSans-302" d="M -1831 5119 
L -1369 5119 
L -603 3944 
L -1038 3944 
L -1600 4709 
L -2163 3944 
L -2597 3944 
L -1831 5119 
z
M -1600 3584 
L -1600 3584 
z
" transform="scale(0.015625)"/>
       <path id="DejaVuSans-Oblique-78" d="M 3841 3500 
L 2234 1784 
L 3219 0 
L 2559 0 
L 1819 1388 
L 531 0 
L -166 0 
L 1556 1844 
L 641 3500 
L 1300 3500 
L 1972 2234 
L 3144 3500 
L 3841 3500 
z
" transform="scale(0.015625)"/>
       <path id="DejaVuSans-27e9" d="M 1925 2006 
L 1044 -844 
L 513 -844 
L 1394 2006 
L 513 4856 
L 1044 4856 
L 1925 2006 
z
" transform="scale(0.015625)"/>
      </defs>
      <use xlink:href="#DejaVuSans-27e8" transform="translate(0 0.828125)"/>
      <use xlink:href="#DejaVuSans-302" transform="translate(101.386719 12.015625)"/>
      <use xlink:href="#DejaVuSans-Oblique-78" transform="translate(39.013672 0.828125)"/>
      <use xlink:href="#DejaVuSans-32" transform="translate(99.150391 39.109375)scale(0.7)"/>
      <use xlink:href="#DejaVuSans-27e9" transform="translate(146.420898 0.828125)"/>
     </g>
    </g>
   </g>
   <g id="line2d_25">
    <path d="M 115.2 205.654375 
L 115.632 204.87085 
L 116.928 181.548599 
L 117.36 170.646956 
L 117.792 169.871245 
L 118.224 165.774793 
L 118.656 159.783976 
L 119.088 155.847186 
L 119.52 149.725499 
L 119.952 152.366698 
L 120.384 145.236866 
L 120.816 148.106275 
L 121.248 157.104007 
L 121.68 152.470703 
L 122.112 160.374716 
L 122.544 161.925376 
L 122.976 165.123941 
L 123.408 158.955802 
L 123.84 158.18974 
L 124.272 154.029948 
L 124.704 151.200874 
L 125.136 150.672108 
L 125.568 144.355185 
L 126 154.897303 
L 126.432 162.443272 
L 126.864 162.356286 
L 127.296 163.596152 
L 127.728 160.670336 
L 128.16 160.599468 
L 128.592 157.148889 
L 129.024 150.913881 
L 129.456 157.837682 
L 129.888 160.729489 
L 130.32 160.266217 
L 130.752 156.053553 
L 131.184 147.103826 
L 131.616 152.090751 
L 132.48 143.898907 
L 132.912 144.72449 
L 133.344 147.300375 
L 134.208 136.47155 
L 134.64 136.668968 
L 135.072 125.914172 
L 135.936 137.307797 
L 136.368 138.629297 
L 136.8 129.759536 
L 137.232 117.649149 
L 137.664 120.585563 
L 138.096 121.533759 
L 138.528 112.612491 
L 138.96 107.779308 
L 139.392 107.012381 
L 140.256 104.07067 
L 140.688 93.603091 
L 141.12 90.877934 
L 141.552 90.654461 
L 141.984 90.749453 
L 142.416 91.171071 
L 142.848 94.855969 
L 143.28 88.643625 
L 144.144 84.83842 
L 144.576 75.092404 
L 145.008 77.805821 
L 145.44 76.569286 
L 145.872 77.189224 
L 146.304 67.678352 
L 146.736 76.497369 
L 147.6 79.22816 
L 148.032 78.870335 
L 148.464 78.123443 
L 148.896 76.902438 
L 149.328 77.891252 
L 149.76 69.062478 
L 150.192 68.209347 
L 150.624 74.949236 
L 151.056 73.376022 
L 151.488 70.761671 
L 152.352 82.593606 
L 152.784 78.317099 
L 153.648 67.12349 
L 154.08 66.965875 
L 154.512 61.669216 
L 154.944 66.313377 
L 155.376 65.339722 
L 155.808 61.030646 
L 156.24 59.823056 
L 156.672 60.200109 
L 157.104 59.632842 
L 157.968 49.750631 
L 158.4 47.148097 
L 158.832 43.782217 
L 159.264 46.056168 
L 159.696 53.712153 
L 160.128 55.888871 
L 161.424 37.309091 
L 161.856 38.066675 
L 162.288 44.77842 
L 162.72 45.49084 
L 163.152 45.454137 
L 163.584 44.933697 
L 164.016 41.309869 
L 164.88 60.64652 
L 165.312 65.211967 
L 165.744 63.667169 
L 166.176 55.347825 
L 166.608 62.997773 
L 167.04 64.79918 
L 167.472 68.405813 
L 167.904 61.081605 
L 168.336 67.63198 
L 168.768 61.607026 
L 169.2 65.485827 
L 169.632 55.759705 
L 170.064 58.831665 
L 170.496 55.54717 
L 170.928 59.885932 
L 171.36 55.691238 
L 171.792 61.214365 
L 172.224 64.436473 
L 172.656 73.311767 
L 173.088 68.683989 
L 173.52 69.366146 
L 173.952 69.496275 
L 174.384 64.199024 
L 174.816 70.814256 
L 175.248 70.497582 
L 175.68 77.196968 
L 176.112 72.812088 
L 176.544 84.042561 
L 176.976 75.34266 
L 177.408 76.063373 
L 177.84 76.180916 
L 178.272 77.756643 
L 179.568 101.334211 
L 180 112.001498 
L 180.432 106.292805 
L 180.864 105.220978 
L 181.296 107.390134 
L 181.728 104.081783 
L 182.592 95.634521 
L 183.024 87.630733 
L 183.456 95.942851 
L 183.888 96.150127 
L 184.32 97.363791 
L 184.752 100.46589 
L 185.184 104.683635 
L 185.616 102.786547 
L 186.48 110.628027 
L 186.912 112.195658 
L 187.344 117.405532 
L 187.776 116.224443 
L 188.208 113.143486 
L 188.64 119.978656 
L 189.072 112.58696 
L 189.504 113.861258 
L 189.936 111.696734 
L 190.368 113.138557 
L 191.232 111.617323 
L 191.664 105.682064 
L 192.096 108.993273 
L 192.528 101.345954 
L 192.96 100.45391 
L 193.824 108.48621 
L 194.256 102.192894 
L 194.688 105.658984 
L 195.12 106.842141 
L 195.552 106.56476 
L 196.416 122.452667 
L 196.848 115.121774 
L 197.28 117.593448 
L 197.712 121.304485 
L 198.144 123.076913 
L 198.576 121.41804 
L 199.008 122.996671 
L 199.44 121.654005 
L 199.872 120.751077 
L 200.736 103.35916 
L 201.168 102.84839 
L 201.6 95.403998 
L 202.032 97.792146 
L 202.464 91.927599 
L 202.896 88.48743 
L 203.328 90.19447 
L 203.76 96.493766 
L 204.192 94.319861 
L 204.624 96.690152 
L 205.056 100.921121 
L 205.488 109.145447 
L 205.92 110.038028 
L 206.352 115.474313 
L 206.784 124.357327 
L 207.216 122.486667 
L 207.648 110.184213 
L 208.08 114.755548 
L 208.944 129.267452 
L 209.808 113.251668 
L 210.24 115.274075 
L 210.672 114.448095 
L 211.104 118.602948 
L 211.536 118.084586 
L 211.968 116.219606 
L 212.4 117.351887 
L 212.832 113.29244 
L 213.264 126.440975 
L 213.696 116.589748 
L 214.128 115.575715 
L 214.56 109.941506 
L 215.856 102.074542 
L 216.288 106.17018 
L 216.72 114.276359 
L 217.152 110.859917 
L 217.584 109.478427 
L 218.016 112.995989 
L 218.88 118.153636 
L 219.312 111.585346 
L 219.744 110.816617 
L 220.176 123.794334 
L 220.608 105.752859 
L 221.472 92.743968 
L 221.904 83.719969 
L 222.768 88.681356 
L 223.2 83.268748 
L 223.632 82.883582 
L 224.064 89.877596 
L 224.496 93.681821 
L 224.928 95.053755 
L 225.36 95.555243 
L 225.792 89.686246 
L 226.224 87.017377 
L 226.656 89.559084 
L 227.088 80.786539 
L 227.52 80.302779 
L 227.952 83.269437 
L 228.384 78.209847 
L 228.816 77.520232 
L 229.248 77.475779 
L 229.68 81.084799 
L 230.112 86.444923 
L 230.544 85.943067 
L 230.976 90.96128 
L 231.408 89.512041 
L 231.84 83.13906 
L 232.272 85.874043 
L 232.704 94.7574 
L 233.568 87.511724 
L 234 93.785069 
L 234.432 96.728961 
L 234.864 93.685153 
L 235.296 94.919676 
L 235.728 89.006855 
L 236.16 78.557595 
L 236.592 80.55674 
L 237.024 80.410296 
L 237.888 93.259262 
L 238.32 93.315992 
L 239.184 87.444492 
L 239.616 92.053778 
L 240.048 83.872545 
L 240.48 86.990943 
L 240.912 83.280763 
L 241.344 76.727773 
L 241.776 77.375937 
L 242.208 74.447344 
L 242.64 67.458404 
L 243.072 69.104228 
L 243.504 74.293346 
L 243.936 72.832123 
L 244.368 73.217618 
L 244.8 72.117995 
L 245.232 68.142742 
L 245.664 62.898079 
L 246.096 69.620462 
L 246.528 73.141489 
L 246.96 67.988064 
L 247.392 65.476121 
L 247.824 61.535342 
L 248.256 59.922377 
L 249.12 65.181943 
L 249.552 68.748642 
L 250.416 71.052814 
L 250.848 65.581289 
L 251.28 67.92959 
L 252.144 58.655647 
L 252.576 63.082901 
L 253.008 59.765101 
L 253.44 52.231784 
L 253.872 56.376385 
L 254.304 61.985938 
L 254.736 63.034448 
L 255.168 65.066256 
L 255.6 74.093242 
L 256.032 74.262411 
L 256.464 74.558492 
L 256.896 72.443423 
L 257.328 81.284315 
L 257.76 72.91483 
L 258.192 74.416668 
L 258.624 74.518911 
L 259.056 67.418984 
L 259.488 62.685412 
L 259.92 65.671861 
L 260.352 66.695898 
L 261.216 76.183742 
L 261.648 90.348608 
L 262.08 85.327164 
L 262.512 93.969996 
L 262.944 106.819941 
L 263.376 108.0065 
L 263.808 110.208416 
L 264.24 113.583195 
L 264.672 111.073255 
L 265.104 100.862716 
L 265.536 102.875158 
L 265.968 105.499589 
L 266.4 109.992386 
L 267.264 123.548013 
L 267.696 123.868798 
L 268.56 116.976185 
L 268.992 118.443815 
L 269.424 115.167239 
L 270.288 138.011718 
L 270.72 136.771457 
L 271.152 121.203947 
L 271.584 123.684009 
L 272.016 125.49756 
L 272.448 126.798712 
L 272.88 127.472375 
L 273.312 122.957101 
L 273.744 121.800178 
L 274.176 124.285009 
L 274.608 124.171782 
L 275.04 116.054234 
L 275.472 118.252521 
L 275.904 124.08591 
L 276.336 119.283554 
L 276.768 128.616807 
L 277.2 128.258811 
L 277.632 119.901404 
L 278.064 124.6114 
L 278.496 122.04971 
L 278.928 125.94932 
L 279.36 132.719654 
L 279.792 128.933135 
L 280.224 127.003151 
L 280.656 115.771 
L 281.088 121.673679 
L 281.52 122.984782 
L 281.952 125.949535 
L 282.384 128.140521 
L 283.248 134.244312 
L 283.68 133.124774 
L 284.112 130.908021 
L 284.544 134.278547 
L 284.976 126.929799 
L 285.408 129.136476 
L 285.84 128.222681 
L 286.272 136.793595 
L 286.704 138.488435 
L 287.136 142.582788 
L 287.568 142.594672 
L 288 141.688103 
L 288.432 144.433603 
L 288.864 139.191419 
L 289.296 151.353646 
L 289.728 157.284428 
L 290.16 150.698922 
L 290.592 158.516179 
L 291.024 155.29543 
L 291.456 156.72117 
L 291.888 155.585367 
L 292.32 143.111719 
L 292.752 150.866391 
L 293.184 142.20049 
L 293.616 145.144092 
L 294.048 143.919466 
L 294.48 155.099429 
L 294.912 150.039568 
L 295.344 139.260457 
L 295.776 143.541473 
L 296.208 129.983238 
L 296.64 128.717663 
L 297.072 127.970762 
L 297.504 125.630293 
L 297.936 126.358791 
L 298.368 123.562511 
L 298.8 118.57541 
L 299.232 120.142633 
L 299.664 121.056738 
L 300.096 118.466286 
L 300.528 124.942428 
L 300.96 128.187063 
L 301.392 124.500648 
L 301.824 124.671179 
L 302.256 126.933287 
L 303.12 120.184169 
L 303.552 117.338895 
L 303.984 124.501634 
L 304.848 115.886592 
L 305.28 126.847694 
L 305.712 143.637489 
L 306.144 140.336544 
L 306.576 135.130586 
L 307.44 133.35138 
L 307.872 130.428902 
L 308.304 132.728444 
L 309.168 125.464825 
L 310.032 137.396216 
L 310.464 139.439407 
L 310.896 143.551553 
L 311.328 150.658876 
L 312.192 153.925503 
L 313.056 147.029377 
L 313.488 136.408436 
L 313.92 138.791154 
L 314.352 137.038736 
L 315.216 141.589298 
L 315.648 149.701771 
L 316.08 162.454774 
L 316.512 161.713503 
L 316.944 167.545111 
L 317.808 171.432808 
L 318.24 165.882628 
L 318.672 168.760977 
L 319.104 177.716875 
L 319.536 176.986024 
L 319.968 187.805029 
L 320.4 193.409344 
L 320.832 190.262831 
L 321.264 193.160214 
L 321.696 184.578149 
L 322.128 188.762416 
L 322.56 187.445793 
L 323.424 175.689294 
L 324.288 180.905148 
L 324.72 175.693917 
L 325.152 179.648595 
L 325.584 181.366101 
L 326.448 170.652806 
L 326.88 169.272359 
L 327.312 161.567844 
L 327.744 161.79195 
L 328.176 152.094641 
L 328.608 153.143087 
L 329.04 153.273242 
L 329.472 152.672513 
L 329.904 150.80693 
L 330.336 146.44954 
L 331.2 154.782423 
L 331.632 154.730126 
L 332.064 159.438619 
L 332.496 148.444445 
L 332.928 149.411279 
L 333.36 141.38578 
L 333.792 145.310181 
L 334.224 147.253958 
L 334.656 148.291333 
L 335.088 148.798763 
L 335.52 148.065305 
L 335.952 149.012154 
L 336.384 149.155381 
L 336.816 153.766639 
L 337.248 162.203551 
L 338.112 169.086154 
L 338.544 175.671139 
L 339.408 167.360626 
L 339.84 171.619216 
L 340.272 172.5755 
L 341.136 182.689501 
L 341.568 190.020979 
L 342 181.002116 
L 342.432 180.508554 
L 343.296 186.09171 
L 343.728 185.143641 
L 344.16 189.865719 
L 344.592 188.487516 
L 345.024 184.336752 
L 345.456 177.058849 
L 345.888 180.490733 
L 346.32 176.447206 
L 346.752 177.77754 
L 347.184 173.537163 
L 347.616 171.648206 
L 348.048 183.164799 
L 348.48 191.465466 
L 348.912 186.467663 
L 349.344 188.594685 
L 349.776 189.866105 
L 350.208 189.041655 
L 350.64 192.993832 
L 351.072 192.207598 
L 351.936 207.922858 
L 352.8 211.183971 
L 353.232 223.108332 
L 353.664 221.230855 
L 354.096 225.641573 
L 354.528 224.571301 
L 355.392 244.003325 
L 355.824 240.33584 
L 356.256 245.478851 
L 356.688 244.94406 
L 357.12 241.682256 
L 357.552 243.205867 
L 357.984 243.550642 
L 358.416 243.153369 
L 358.848 244.684088 
L 360.144 251.051506 
L 360.576 242.083234 
L 361.008 238.861577 
L 361.44 233.748165 
L 361.872 234.69931 
L 362.304 237.695194 
L 362.736 233.874878 
L 363.168 233.016918 
L 363.6 241.876297 
L 364.032 244.396439 
L 364.464 240.339977 
L 364.896 242.835431 
L 365.328 238.892377 
L 365.76 243.360499 
L 366.192 240.639374 
L 366.624 245.513398 
L 367.056 241.417366 
L 367.488 243.016647 
L 367.92 243.291843 
L 368.352 252.399357 
L 368.784 256.398832 
L 369.216 252.359789 
L 369.648 260.02914 
L 370.08 258.2588 
L 370.512 266.036042 
L 370.944 277.440789 
L 371.376 281.936234 
L 371.808 278.572673 
L 372.24 281.095853 
L 372.672 274.732718 
L 373.104 281.535159 
L 373.536 291.118354 
L 373.968 297.10556 
L 374.4 298.994741 
L 374.832 298.046189 
L 375.264 301.921275 
L 375.696 290.124464 
L 376.128 282.40436 
L 376.56 283.556287 
L 376.992 278.247862 
L 377.424 276.505656 
L 377.856 274.20843 
L 378.288 273.665412 
L 378.72 262.422083 
L 379.152 261.386821 
L 379.584 257.153816 
L 380.016 261.781634 
L 380.448 255.492931 
L 380.88 258.817412 
L 381.312 249.814105 
L 381.744 245.693717 
L 382.176 248.077031 
L 382.608 256.871608 
L 383.04 249.083618 
L 383.472 246.090074 
L 383.904 244.03663 
L 384.336 238.039802 
L 384.768 239.111101 
L 385.2 243.086216 
L 385.632 249.131406 
L 386.064 250.483355 
L 386.496 255.861884 
L 386.928 257.005946 
L 387.792 249.283269 
L 388.224 248.783272 
L 388.656 243.538405 
L 389.088 246.491942 
L 389.52 246.191092 
L 389.952 248.422945 
L 390.384 243.152049 
L 391.248 255.972628 
L 391.68 256.61472 
L 392.112 263.987402 
L 392.544 266.027392 
L 392.976 265.419129 
L 393.408 262.88068 
L 393.84 276.862074 
L 394.272 283.74236 
L 394.704 275.788612 
L 395.568 278.972732 
L 396.432 269.805229 
L 396.864 270.94468 
L 397.296 268.765497 
L 397.728 269.78612 
L 398.16 264.80636 
L 398.592 272.676081 
L 399.024 273.085301 
L 399.456 277.494294 
L 400.32 270.280962 
L 400.752 262.645563 
L 401.184 258.543228 
L 401.616 257.986727 
L 402.48 247.628495 
L 402.912 249.922271 
L 403.344 247.982236 
L 403.776 247.408413 
L 404.208 245.790924 
L 404.64 244.762069 
L 405.072 261.261723 
L 405.504 262.660052 
L 405.936 258.114043 
L 406.368 256.39178 
L 406.8 250.730417 
L 407.232 260.597839 
L 408.096 254.641727 
L 408.528 255.957134 
L 408.96 248.898887 
L 409.392 253.394718 
L 409.824 253.428785 
L 410.256 260.261134 
L 410.688 265.187073 
L 411.12 261.728313 
L 411.552 263.723304 
L 411.984 262.252726 
L 412.416 264.810827 
L 412.848 268.969569 
L 413.28 276.540091 
L 413.712 276.965656 
L 414.144 281.588122 
L 414.576 279.703471 
L 415.008 282.614773 
L 415.44 282.37721 
L 415.872 281.675992 
L 416.304 279.470121 
L 417.168 289.185686 
L 417.6 285.026002 
L 418.032 285.51634 
L 418.464 287.474053 
L 418.896 295.154972 
L 419.328 289.832384 
L 419.76 287.274793 
L 420.624 294.648996 
L 421.056 296.484865 
L 422.352 309.413203 
L 422.784 319.169071 
L 423.216 306.573202 
L 423.648 306.88985 
L 424.08 303.08892 
L 424.512 307.101401 
L 424.944 306.671568 
L 425.376 306.641397 
L 425.808 304.416946 
L 426.24 296.275735 
L 426.672 285.72793 
L 427.104 284.492592 
L 427.536 285.59301 
L 427.968 293.318595 
L 428.4 296.48803 
L 428.832 301.267562 
L 429.264 301.723257 
L 429.696 295.195857 
L 430.128 291.11768 
L 430.56 290.173218 
L 430.992 291.88161 
L 431.424 289.10163 
L 431.856 289.817129 
L 432.288 293.30291 
L 432.72 293.963097 
L 433.152 293.349358 
L 433.584 293.230138 
L 434.016 294.160214 
L 434.448 293.844357 
L 434.88 295.947349 
L 435.312 294.289924 
L 435.744 296.573947 
L 436.176 295.981187 
L 436.608 293.391153 
L 437.04 296.327782 
L 437.472 303.395023 
L 437.904 302.278294 
L 438.768 311.909877 
L 439.2 311.134398 
L 439.632 311.678201 
L 440.064 310.103526 
L 440.496 305.279523 
L 440.928 308.63585 
L 441.36 307.689913 
L 441.792 315.256719 
L 442.224 303.617302 
L 442.656 308.712078 
L 443.088 317.372904 
L 443.52 318.617679 
L 443.952 316.261028 
L 444.384 315.261844 
L 444.816 313.624019 
L 445.248 305.205349 
L 445.68 308.904763 
L 446.112 309.48601 
L 446.544 306.24443 
L 446.976 321.04411 
L 447.408 324.565958 
L 447.84 321.863319 
L 448.272 320.082508 
L 448.704 319.587509 
L 449.136 322.17252 
L 449.568 318.311113 
L 450 312.573975 
L 450.432 302.740113 
L 450.864 306.136153 
L 451.296 303.955078 
L 451.728 302.811281 
L 452.16 310.371613 
L 452.592 307.113327 
L 453.024 306.604975 
L 453.456 308.779693 
L 453.888 315.478842 
L 454.32 316.086494 
L 454.752 315.990481 
L 455.184 319.709179 
L 455.616 306.513613 
L 456.048 310.499641 
L 456.48 307.370782 
L 456.912 308.146355 
L 457.344 302.451781 
L 457.776 306.810085 
L 458.208 312.537474 
L 458.64 315.562364 
L 459.504 323.443626 
L 459.936 317.11459 
L 460.368 319.915635 
L 460.8 323.48281 
L 461.664 322.061189 
L 462.528 317.967824 
L 463.392 331.765887 
L 463.824 330.406989 
L 464.256 331.643304 
L 464.688 333.709683 
L 465.12 341.182702 
L 465.552 338.111647 
L 466.416 339.118505 
L 466.848 337.752848 
L 467.28 331.828968 
L 467.712 324.048834 
L 468.144 332.649387 
L 468.576 329.134888 
L 469.008 334.913429 
L 469.44 328.315856 
L 469.872 324.732166 
L 470.304 332.514999 
L 470.736 331.495045 
L 471.168 324.466178 
L 471.6 334.056753 
L 472.032 338.546029 
L 472.464 339.483381 
L 472.896 344.044687 
L 473.328 351.490909 
L 473.76 345.285807 
L 474.192 342.559334 
L 474.624 338.39092 
L 475.056 337.08879 
L 475.92 328.162466 
L 476.352 327.87202 
L 476.784 319.863162 
L 477.216 315.484407 
L 478.08 315.147358 
L 478.512 318.965021 
L 478.944 314.622115 
L 479.376 314.734052 
L 479.808 315.184844 
L 480.24 318.258402 
L 480.672 315.469311 
L 481.104 307.242534 
L 481.536 307.20963 
L 481.968 308.993069 
L 482.4 309.511495 
L 482.832 311.339819 
L 483.264 314.125142 
L 483.696 313.271845 
L 484.128 316.412414 
L 484.56 324.580208 
L 484.992 323.484344 
L 485.424 317.399562 
L 485.856 313.026659 
L 486.288 313.362191 
L 486.72 310.848758 
L 487.152 310.400295 
L 487.584 308.122615 
L 488.016 312.565076 
L 488.88 306.472027 
L 489.312 313.70413 
L 489.744 315.643752 
L 490.176 311.180886 
L 491.04 309.671101 
L 491.472 309.659068 
L 491.904 311.827648 
L 492.336 304.470923 
L 492.768 299.70659 
L 493.2 299.500675 
L 493.632 298.130101 
L 494.064 296.304275 
L 494.496 295.714275 
L 494.928 293.517116 
L 495.36 295.34141 
L 496.224 289.859641 
L 496.656 292.073879 
L 497.088 290.097832 
L 497.52 290.159423 
L 497.952 301.596733 
L 498.384 296.397965 
L 498.816 300.131959 
L 499.248 294.355736 
L 499.68 301.551346 
L 500.112 301.839913 
L 500.544 303.355147 
L 500.976 310.290084 
L 501.408 311.005164 
L 501.84 308.866096 
L 502.272 315.113083 
L 502.704 314.178501 
L 503.136 309.129262 
L 503.568 319.158791 
L 504 324.090445 
L 504.432 325.056301 
L 504.864 322.319766 
L 505.296 326.927365 
L 505.728 323.466392 
L 506.16 335.922041 
L 506.592 336.139258 
L 507.456 321.165207 
L 507.888 324.945227 
L 508.32 325.474695 
L 508.752 324.46266 
L 509.184 334.178638 
L 509.616 332.714278 
L 510.048 339.559638 
L 510.48 330.467911 
L 510.912 333.725239 
L 511.344 331.569686 
L 511.776 334.892972 
L 512.208 339.495646 
L 512.64 334.735669 
L 513.072 331.808185 
L 513.504 322.693422 
L 513.936 326.953508 
L 514.368 324.193223 
L 514.8 318.628916 
L 515.232 319.452561 
L 515.664 322.750997 
L 516.096 323.378014 
L 516.528 317.348647 
L 516.96 314.617075 
L 517.392 317.197477 
L 517.824 314.887963 
L 518.256 310.482628 
L 518.688 313.100978 
L 519.12 308.785667 
L 519.552 307.171995 
L 519.984 304.458463 
L 520.416 292.1875 
L 521.28 289.32711 
L 521.712 282.560788 
L 522.144 279.972023 
L 522.576 285.809481 
L 523.008 289.146218 
L 523.44 283.3506 
L 523.872 282.747097 
L 524.304 279.198381 
L 524.736 277.973077 
L 525.168 280.268036 
L 525.6 289.167105 
L 526.032 279.452081 
L 526.896 274.819139 
L 527.328 278.403175 
L 527.76 276.321396 
L 528.192 274.860201 
L 528.624 272.746559 
L 529.056 276.630443 
L 529.488 268.827715 
L 529.92 265.06798 
L 530.352 263.309518 
L 530.784 263.658803 
L 531.216 255.471411 
L 531.648 262.496357 
L 532.08 254.215414 
L 532.512 255.562915 
L 533.808 241.759764 
L 534.24 241.796417 
L 534.672 243.770657 
L 535.104 250.404178 
L 535.536 243.65673 
L 535.968 233.714587 
L 536.4 227.3846 
L 536.832 227.060201 
L 537.264 233.364494 
L 537.696 226.548166 
L 538.128 225.548333 
L 538.56 225.578385 
L 538.992 228.937246 
L 539.424 227.09633 
L 539.856 232.066021 
L 540.288 228.018594 
L 540.72 228.44109 
L 541.152 228.158271 
L 541.584 217.490151 
L 542.016 216.597587 
L 542.448 217.844891 
L 542.88 215.013369 
L 543.312 213.228552 
L 543.744 213.489519 
L 544.176 217.623522 
L 544.608 213.383862 
L 545.04 211.632503 
L 545.904 216.460113 
L 546.336 222.033697 
L 546.768 215.597683 
L 546.768 215.597683 
" clip-path="url(#p9e7b20d132)" style="fill: none; stroke: #1f77b4; stroke-width: 1.5; stroke-linecap: square"/>
   </g>
   <g id="line2d_26">
    <path d="M 115.2 205.654375 
L 547.2 205.654375 
" clip-path="url(#p9e7b20d132)" style="fill: none; stroke-dasharray: 5.55,2.4; stroke-dashoffset: 0; stroke: #ff0000; stroke-width: 1.5"/>
   </g>
   <g id="patch_3">
    <path d="M 115.2 367.2 
L 115.2 21.6 
" style="fill: none; stroke: #000000; stroke-width: 0.8; stroke-linejoin: miter; stroke-linecap: square"/>
   </g>
   <g id="patch_4">
    <path d="M 547.2 367.2 
L 547.2 21.6 
" style="fill: none; stroke: #000000; stroke-width: 0.8; stroke-linejoin: miter; stroke-linecap: square"/>
   </g>
   <g id="patch_5">
    <path d="M 115.2 367.2 
L 547.2 367.2 
" style="fill: none; stroke: #000000; stroke-width: 0.8; stroke-linejoin: miter; stroke-linecap: square"/>
   </g>
   <g id="patch_6">
    <path d="M 115.2 21.6 
L 547.2 21.6 
" style="fill: none; stroke: #000000; stroke-width: 0.8; stroke-linejoin: miter; stroke-linecap: square"/>
   </g>
  </g>
 </g>
 <defs>
  <clipPath id="p9e7b20d132">
   <rect x="115.2" y="21.6" width="432" height="345.6"/>
  </clipPath>
 </defs>
</svg>
